{"title":"Five Fingers (2009)","uid":5720538,"size":599666466,"categoryP":"other","categoryS":"other","magnet":"?xt=urn:btih:c5d3a4411e8ae1a5cfe2b6a16f3a5d0934398b50&amp;dn=Five+Fingers+%282009%29&amp;tr=udp%3A%2F%2Ftracker.openbittorrent.com%3A80&amp;tr=udp%3A%2F%2Fopen.demonii.com%3A1337&amp;tr=udp%3A%2F%2Ftracker.coppersurfer.tk%3A6969&amp;tr=udp%3A%2F%2Fexodus.desync.com%3A6969","seeders":1,"leechers":0,"uploader":"TvTeam","files":4,"time":1280275361,"description":". \n  &lt;a href=&quot;\nhttp://www.torrentday.com/&quot; rel=&quot;nofollow&quot; target=&quot;_NEW&quot;&gt;\nhttp://www.torrentday.com/&lt;/a&gt;        :     The Hottest Private Tracker On The Net!!!\n\n\n               www . TorrentDay . Com \n(((((((((((((= Enjoy No RAR releases =))))))))))))))))))))\n\n\n...................................NFO:....................................\n\n.http://www.imdb.com/title/tt0428541/\n\nDirected by \tLaurence Malkin\nProduced by \tLaurence Fishburne\nDolly Hall\nWritten by \tChad Thumann\nLaurence Malkin\nStarring \tMimi Ferrer\nLaurence Fishburne\nTouriya Haoud\nRyan Phillipe\nIsa Hoes\nAntonie Kamerling\nColm Meaney\nMusic by \tVernon Reid\nNoah Agruss\nCinematography \tAlexander Gruszynski\nEditing by \tHerman P. Koerts\nMaureen Meulen\nDistributed by \tLionsgate Films\nRelease date(s) \tJuly 6, 2006 (2006-07-06)\nRunning time \t87 minutes\nCountry \tUnited States\nLanguage \tEnglish\n\nIn Morocco to assist with the creation of a food charity, a Dutchman is abducted by a terrorist.\n\n\nVideo\nID                               : 0\nFormat                           : MPEG-4 Visual\nFormat profile                   : Advanced Simple@L5\nFormat settings, BVOP            : Yes\nFormat settings, QPel            : No\nFormat settings, GMC             : No warppoints\nFormat settings, Matrix          : Default (H.263)\nCodec ID                         : XVID\nCodec ID/Hint                    : XviD\nDuration                         : 1h 23mn\nBit rate                         : 761 Kbps\nWidth                            : 592 pixels\nHeight                           : 320 pixels\nDisplay aspect ratio             : 1.850\nFrame rate                       : 25.000 fps\nResolution                       : 8 bits\nColorimetry                      : 4:2:0\nScan type                        : Progressive\nBits/(Pixel*Frame)               : 0.161\nStream size                      : 454 MiB (79%)\nWriting library                  : XviD 1.1.2 (UTC 2006-11-01)\n\nAudio\nID                               : 1\nFormat                           : MPEG Audio\nFormat version                   : Version 1\nFormat profile                   : Layer 3\nCodec ID                         : 55\nCodec ID/Hint                    : MP3\nDuration                         : 1h 23mn\nBit rate mode                    : Constant\nBit rate                         : 192 Kbps\nChannel(s)                       : 2 channels\nSampling rate                    : 44.1 KHz\nVideo delay                      : 63ms\nStream size                      : 115 MiB (20%)\nAlignment                        : Split accross interleaves\nInterleave, duration             : 500 ms (12.50 video frames)\nInterleave, preload duration     : 1000 ms\nWriting library                  : LAME3.98","torrent":{"xt":"urn:btih:c5d3a4411e8ae1a5cfe2b6a16f3a5d0934398b50","amp;dn":"Five+Fingers+%282009%29","amp;tr":["udp%3A%2F%2Ftracker.openbittorrent.com%3A80","udp%3A%2F%2Fopen.demonii.com%3A1337","udp%3A%2F%2Ftracker.coppersurfer.tk%3A6969","udp%3A%2F%2Fexodus.desync.com%3A6969"],"infoHash":"c5d3a4411e8ae1a5cfe2b6a16f3a5d0934398b50","infoHashBuffer":{"type":"Buffer","data":[197,211,164,65,30,138,225,165,207,226,182,161,111,58,93,9,52,57,139,80]},"announce":[],"urlList":[]}}